<svg width="1000" height="1000" viewBox="0 0 1000 1000" fill="none" xmlns="http://www.w3.org/2000/svg">
<path d="M429.021 471L429.815 475.822C430.526 480.136 433.906 483.516 438.219 484.227L443.042 485.021L438.219 485.815C433.906 486.526 430.526 489.906 429.815 494.219L429.021 499.042L428.226 494.219C427.516 489.906 424.136 486.526 419.822 485.815L415 485.021L419.822 484.227C424.136 483.516 427.516 480.136 428.226 475.822L429.021 471Z" fill="url(#paint0_linear_3_5)"/>
<path d="M570.021 471L570.815 475.822C571.526 480.136 574.906 483.516 579.219 484.227L584.042 485.021L579.219 485.815C574.906 486.526 571.526 489.906 570.815 494.219L570.021 499.042L569.227 494.219C568.516 489.906 565.136 486.526 560.822 485.815L556 485.021L560.822 484.227C565.136 483.516 568.516 480.136 569.227 475.822L570.021 471Z" fill="url(#paint1_linear_3_5)"/>
<path d="M498.059 442L499.245 449.202C500.306 455.644 505.355 460.693 511.797 461.754L519 462.941L511.797 464.127C505.355 465.188 500.306 470.237 499.245 476.679L498.059 483.882L496.873 476.679C495.812 470.237 490.763 465.188 484.321 464.127L477.118 462.941L484.321 461.754C490.763 460.693 495.812 455.644 496.873 449.202L498.059 442Z" fill="#FBC418"/>
<defs>
<linearGradient id="paint0_linear_3_5" x1="439.943" y1="471" x2="417.472" y2="475.733" gradientUnits="userSpaceOnUse">
<stop stop-color="#FFD44F"/>
<stop offset="1" stop-color="#FF8A01"/>
</linearGradient>
<linearGradient id="paint1_linear_3_5" x1="580.943" y1="471" x2="558.472" y2="475.733" gradientUnits="userSpaceOnUse">
<stop stop-color="#FFD44F"/>
<stop offset="1" stop-color="#FF8A01"/>
</linearGradient>
</defs>
</svg>
